<?xml version="1.0" standalone="no"?>
<!DOCTYPE svg PUBLIC "-//W3C//DTD SVG 20010904//EN"
 "http://www.w3.org/TR/2001/REC-SVG-20010904/DTD/svg10.dtd">
<svg version="1.0" xmlns="http://www.w3.org/2000/svg"
 width="51.000000pt" height="38.000000pt" viewBox="0 0 51.000000 38.000000"
 preserveAspectRatio="xMidYMid meet">

<g transform="translate(0.000000,38.000000) scale(0.100000,-0.100000)"
fill="#000000" stroke="none">
<path d="M262 328 c-18 -5 -38 -17 -44 -28 -12 -19 -13 -19 -35 2 -28 26 -70
18 -79 -16 -3 -15 -16 -27 -30 -30 -13 -4 -24 -12 -24 -19 -1 -6 -3 -36 -5
-65 -3 -47 -1 -57 20 -78 25 -25 50 -30 75 -14 10 6 21 3 36 -11 12 -11 34
-21 50 -22 l29 -2 3 68 3 67 39 0 c22 0 40 -4 40 -8 0 -4 -16 -6 -35 -4 l-35
4 0 -56 0 -56 34 0 c19 0 38 -4 41 -10 16 -25 106 2 119 35 14 37 6 86 -19
110 -13 14 -28 25 -33 25 -5 0 -14 17 -20 39 -7 21 -18 44 -26 50 -24 20 -69
28 -104 19z"/>
</g>
</svg>
